<svg xmlns="http://www.w3.org/2000/svg" width="24" height="24" fill="#292d32"><path d="M17 21.25H7c-3.65 0-5.75-2.1-5.75-5.75v-7c0-3.65 2.1-5.75 5.75-5.75h10c3.65 0 5.75 2.1 5.75 5.75v7c0 3.65-2.1 5.75-5.75 5.75zm-10-17c-2.86 0-4.25 1.39-4.25 4.25v7c0 2.86 1.39 4.25 4.25 4.25h10c2.86 0 4.25-1.39 4.25-4.25v-7c0-2.86-1.39-4.25-4.25-4.25H7zm4.999 8.62c-.84 0-1.69-.26-2.34-.79l-3.13-2.5c-.32-.26-.38-.73-.12-1.05s.73-.38 1.05-.12l3.13 2.5c.76.61 2.05.61 2.81 0l3.13-2.5a.74.74 0 0 1 1.05.12.74.74 0 0 1-.12 1.05l-3.13 2.5c-.64.53-1.49.79-2.33.79z"/></svg>