<svg xmlns="http://www.w3.org/2000/svg" width="60" height="60" fill="none"><g clip-path="url(#A)"><path d="M47.25 0h-36C5.037 0 0 5.037 0 11.25v36C0 53.463 5.037 58.5 11.25 58.5h36c6.213 0 11.25-5.037 11.25-11.25v-36C58.5 5.037 53.463 0 47.25 0z" fill="#fff"/><path d="M48 .75H12C5.787.75.75 5.787.75 12v36c0 6.213 5.037 11.25 11.25 11.25h36c6.213 0 11.25-5.037 11.25-11.25V12C59.25 5.787 54.213.75 48 .75z" stroke="#eaecf0"/><path d="M30.461 43.858c-.527.189-1.395.189-1.922 0C24.044 42.301 14 35.805 14 24.793 14 19.933 17.86 16 22.618 16c2.821 0 5.317 1.384 6.882 3.524.796-1.092 1.834-1.979 3.029-2.591A8.47 8.47 0 0 1 36.382 16C41.141 16 45 19.933 45 24.793c0 11.011-10.044 17.508-14.539 19.065z" stroke="#292d32" stroke-width="2" stroke-linejoin="round"/></g><defs><clipPath id="A"><path fill="#fff" d="M0 0h60v60H0z"/></clipPath></defs></svg>