<svg xmlns="http://www.w3.org/2000/svg" width="60" height="60" fill="none"><g clip-path="url(#A)"><path d="M47.25 0h-36C5.037 0 0 5.037 0 11.25v36C0 53.463 5.037 58.5 11.25 58.5h36c6.213 0 11.25-5.037 11.25-11.25v-36C58.5 5.037 53.463 0 47.25 0z" fill="#fff"/><path d="M48 .75H12C5.787.75.75 5.787.75 12v36c0 6.213 5.037 11.25 11.25 11.25h36c6.213 0 11.25-5.037 11.25-11.25V12C59.25 5.787 54.213.75 48 .75z" stroke="#eaecf0"/><g stroke="#292d32" stroke-width="2" stroke-linejoin="round"><path d="M30 44c7.732 0 14-6.268 14-14s-6.268-14-14-14-14 6.268-14 14 6.268 14 14 14z"/><g stroke-linecap="round"><path d="M24.4 17.4h1.4c-2.73 8.176-2.73 17.024 0 25.2h-1.4m9.8-25.2c2.73 8.176 2.73 17.024 0 25.2"/><path d="M17.4 35.6v-1.4c8.176 2.73 17.024 2.73 25.2 0v1.4m-25.2-9.8c8.176-2.73 17.024-2.73 25.2 0"/></g></g></g><defs><clipPath id="A"><path fill="#fff" d="M0 0h60v60H0z"/></clipPath></defs></svg>