<svg xmlns="http://www.w3.org/2000/svg" width="60" height="60" fill="none"><g clip-path="url(#A)"><path d="M47.25 0h-36C5.037 0 0 5.037 0 11.25v36C0 53.463 5.037 58.5 11.25 58.5h36c6.213 0 11.25-5.037 11.25-11.25v-36C58.5 5.037 53.463 0 47.25 0z" fill="#fff"/><path d="M48 .75H12C5.787.75.75 5.787.75 12v36c0 6.213 5.037 11.25 11.25 11.25h36c6.213 0 11.25-5.037 11.25-11.25V12C59.25 5.787 54.213.75 48 .75z" stroke="#eaecf0"/><path d="M21.881 31.792h4.246v10.079c0 2.352 1.251 2.828 2.776 1.064l10.403-12.039c1.278-1.47.742-2.688-1.196-2.688h-4.246V18.129c0-2.352-1.25-2.828-2.776-1.064L20.685 29.104c-1.264 1.484-.728 2.688 1.196 2.688z" stroke="#292d32" stroke-width="2" stroke-miterlimit="10" stroke-linejoin="round"/></g><defs><clipPath id="A"><path fill="#fff" d="M0 0h60v60H0z"/></clipPath></defs></svg>