<svg xmlns="http://www.w3.org/2000/svg" width="60" height="60" fill="none"><g clip-path="url(#A)"><path d="M47.25 0h-36C5.037 0 0 5.037 0 11.25v36C0 53.463 5.037 58.5 11.25 58.5h36c6.213 0 11.25-5.037 11.25-11.25v-36C58.5 5.037 53.463 0 47.25 0z" fill="#fff"/><path d="M48 .75H12C5.787.75.75 5.787.75 12v36c0 6.213 5.037 11.25 11.25 11.25h36c6.213 0 11.25-5.037 11.25-11.25V12C59.25 5.787 54.213.75 48 .75z" stroke="#eaecf0"/><g stroke="#292d32" stroke-width="2" stroke-linejoin="round"><path d="M42.961 28.764c0 6.849-4.973 13.265-11.766 15.142-.468.126-.961.126-1.429 0C22.973 42.029 18 35.613 18 28.764v-6.149c0-1.149.868-2.451 1.947-2.886l7.802-3.194a7.27 7.27 0 0 1 5.477 0l7.802 3.194c1.065.434 1.947 1.737 1.947 2.886l-.014 6.149z"/><path d="M26.404 30.973l2.255 2.255 6.023-6.023" stroke-linecap="round"/></g></g><defs><clipPath id="A"><path fill="#fff" d="M0 0h60v60H0z"/></clipPath></defs></svg>