<svg xmlns="http://www.w3.org/2000/svg" width="60" height="60" fill="none"><g clip-path="url(#A)"><path d="M47.25 0h-36C5.037 0 0 5.037 0 11.25v36C0 53.463 5.037 58.5 11.25 58.5h36c6.213 0 11.25-5.037 11.25-11.25v-36C58.5 5.037 53.463 0 47.25 0z" fill="#fff"/><g stroke="#292d32" stroke-width="2" stroke-linejoin="round"><path d="M31.03 16.338l8.859 3.934c2.553 1.126 2.553 2.988 0 4.114L31.03 28.32c-1.006.45-2.658.45-3.664 0l-8.859-3.934c-2.553-1.126-2.553-2.988 0-4.114l8.859-3.934c1.006-.45 2.658-.45 3.664 0z"/><path d="M16 28.47c0 1.261.946 2.718 2.102 3.228l10.195 4.535c.781.345 1.667.345 2.433 0l10.196-4.535c1.156-.511 2.102-1.967 2.102-3.228M16 35.978a3.54 3.54 0 0 0 2.102 3.228l10.195 4.535c.781.345 1.667.345 2.433 0l10.196-4.535a3.54 3.54 0 0 0 2.102-3.228" stroke-linecap="round"/></g><path d="M48 .75H12C5.787.75.75 5.787.75 12v36c0 6.213 5.037 11.25 11.25 11.25h36c6.213 0 11.25-5.037 11.25-11.25V12C59.25 5.787 54.213.75 48 .75z" stroke="#eaecf0"/></g><defs><clipPath id="A"><path fill="#fff" d="M0 0h60v60H0z"/></clipPath></defs></svg>