<svg xmlns="http://www.w3.org/2000/svg" width="60" height="60" fill="none"><g clip-path="url(#A)"><path d="M47.25 0h-36C5.037 0 0 5.037 0 11.25v36C0 53.463 5.037 58.5 11.25 58.5h36c6.213 0 11.25-5.037 11.25-11.25v-36C58.5 5.037 53.463 0 47.25 0z" fill="#fff"/><path d="M48 .75H12C5.787.75.75 5.787.75 12v36c0 6.213 5.037 11.25 11.25 11.25h36c6.213 0 11.25-5.037 11.25-11.25V12C59.25 5.787 54.213.75 48 .75z" stroke="#eaecf0"/><g stroke="#292d32" stroke-width="2" stroke-linejoin="round"><path d="M31.366 24.588l1.855 3.711c.253.506.928 1.012 1.49 1.096l3.359.562c2.151.365 2.656 1.912 1.11 3.457l-2.614 2.614c-.436.436-.689 1.293-.548 1.911l.745 3.247c.59 2.558-.773 3.556-3.036 2.221l-3.148-1.869c-.576-.337-1.504-.337-2.08 0l-3.148 1.869c-2.263 1.335-3.626.337-3.036-2.221l.745-3.247c.141-.604-.112-1.462-.548-1.911l-2.614-2.614c-1.546-1.546-1.04-3.106 1.11-3.457l3.359-.562a2.33 2.33 0 0 0 1.49-1.096l1.855-3.711c.998-2.01 2.656-2.01 3.654 0z"/><path d="M21.106 25.839V16m16.866 9.839V16m-8.433 2.811V16" stroke-linecap="round"/></g></g><defs><clipPath id="A"><path fill="#fff" d="M0 0h60v60H0z"/></clipPath></defs></svg>